<svg width="2000" height="415" viewBox="0 0 2000 415" fill="none" xmlns="http://www.w3.org/2000/svg">
<g clip-path="url(#clip0_340_35123)">
<path d="M832.837 155.029H768.854L702.738 231.683V55.7812H648.276V355.243H702.738V275.254L774.168 355.243H843.245L748.931 253.852L832.837 155.029Z" fill="white"/>
<path d="M892.168 62.4258C884.047 62.4258 876.892 65.3183 870.692 71.1095C864.498 76.8932 861.397 83.9376 861.397 92.2203C861.397 100.084 864.458 107.049 870.585 113.125C876.706 119.2 883.901 122.234 892.168 122.234C900.73 122.234 907.999 119.2 913.978 113.125C919.953 107.049 922.939 100.084 922.939 92.2203C922.939 84.079 919.913 77.0814 913.865 71.2127C907.811 65.3563 900.583 62.4258 892.168 62.4258Z" fill="white"/>
<path d="M864.938 355.242H919.4V155.028H864.938V355.242Z" fill="white"/>
<path d="M1093.85 151.171C1081.9 151.171 1070.9 155.498 1060.87 164.141C1050.82 172.792 1040.86 186.757 1030.98 206.047H1030.09V155.032H975.634V355.24H1030.09V263.925C1030.09 253.925 1032.56 243.918 1037.51 233.911C1042.45 223.917 1049.02 215.874 1057.21 209.799C1065.4 203.73 1073.71 200.689 1082.12 200.689C1091.71 200.689 1104.41 206.409 1120.2 217.836L1139.68 171.753C1130.38 164.322 1122.22 159.034 1115.22 155.884C1108.2 152.746 1101.08 151.171 1093.85 151.171Z" fill="white"/>
<path d="M1155.17 281.075H1269.85V230.484H1155.17V281.075Z" fill="white"/>
<path d="M1463.13 314.942H1434.57C1390.44 314.942 1368.37 293.437 1368.37 250.42C1368.37 232.555 1373.8 218.127 1384.63 207.12C1395.49 196.117 1409.99 190.611 1428.15 190.611C1440.25 190.611 1451.9 193.4 1463.13 198.973V314.942ZM1463.13 159.532C1446.74 153.954 1431.31 151.171 1416.86 151.171C1398.11 151.171 1380.66 155.561 1364.5 164.354C1348.34 173.142 1335.64 185.253 1326.42 200.689C1317.19 216.119 1312.58 233.272 1312.58 252.131C1312.58 284.004 1322.5 309.156 1342.36 327.589C1362.2 346.02 1388.66 355.24 1421.72 355.24H1517.37V55.7778H1463.13V159.532Z" fill="white"/>
<path d="M1617.66 233.7C1619.86 218.412 1625.14 206.836 1633.48 198.973C1641.82 191.117 1652.86 187.185 1666.58 187.185C1680.01 187.185 1690.57 191.297 1698.23 199.509C1705.9 207.734 1710.48 219.122 1711.97 233.7H1617.66ZM1664.37 151.173C1633.67 151.173 1608.76 160.817 1589.66 180.109C1570.54 199.406 1560.98 224.268 1560.98 254.708C1560.98 286.29 1571.31 311.585 1591.97 330.592C1612.63 349.597 1639.27 359.102 1671.89 359.102C1706.43 359.102 1735.79 350.818 1760.01 334.233V295.006C1747.17 303.87 1734.73 310.482 1722.7 314.832C1710.66 319.197 1698.15 321.372 1685.17 321.372C1664.95 321.372 1649.05 316.549 1637.48 306.905C1625.88 297.259 1618.98 283.508 1616.77 265.639H1763.1V257.71C1763.1 224.417 1754.25 198.326 1736.54 179.469C1718.83 160.605 1694.76 151.173 1664.37 151.173Z" fill="white"/>
<path d="M1936.01 155.029L1887.53 270.998L1837.93 155.029H1779.49L1874.23 359.098H1900.59L1994.01 155.029H1936.01Z" fill="white"/>
<path d="M290.501 35.5139C307.379 35.5139 324.303 35.1349 341.175 35.5808C347.586 35.7481 353.983 36.2542 360.341 37.0967L355.663 36.4597C368.36 38.1733 380.858 41.307 392.69 46.218L388.485 44.46C397.731 48.2867 406.445 53.2712 414.412 59.2916L410.851 56.5653C417.692 61.7819 423.836 67.8392 429.135 74.5914L426.381 71.0626C431.219 77.2764 435.237 84.0768 438.338 91.2988L436.563 87.133C439.565 94.1769 441.618 101.581 442.67 109.156C442.457 107.608 442.243 106.062 442.028 104.519C443.018 111.883 443.018 119.346 442.028 126.711C442.243 125.165 442.457 123.619 442.67 122.073C441.683 129.219 439.759 136.206 436.946 142.857L438.72 138.688C435.855 145.383 432.138 151.687 427.659 157.447L430.411 153.915C425.545 160.115 419.906 165.679 413.629 170.475L417.19 167.75C409.592 173.492 401.281 178.246 392.462 181.893L396.666 180.135C384.612 185.148 371.851 188.275 358.913 190.008L363.593 189.371C353.101 190.747 342.583 191.037 332.018 191.037H290.501C280.902 191.037 272.895 198.973 272.895 208.479C272.895 217.987 280.902 225.924 290.501 225.924C306.83 225.924 323.165 226.057 339.491 225.924C368.447 225.668 398.138 219.989 423.436 205.522C442.863 194.409 459.954 177.39 468.901 156.794C471.283 151.309 473.477 145.845 474.937 140.045C476.396 134.246 477.21 128.344 477.712 122.443C478.589 112.102 477.428 101.442 475.008 91.3751C469.925 70.2377 457.437 50.5716 441.063 36.2304C421.421 19.0325 396.792 8.17241 371.047 3.74555C358.858 1.65452 346.51 0.611328 334.139 0.62763H290.501C280.906 0.62763 272.895 8.56414 272.895 18.0708C272.895 27.5773 280.906 35.5139 290.501 35.5139Z" fill="white"/>
<path d="M184.28 191.463C150.095 191.576 116.703 201.675 88.2815 220.495C59.7816 239.535 36.8677 265.699 21.8621 296.338C7.68535 325.362 0.30378 357.183 0.2677 389.426C0.2677 398.933 8.28764 406.87 17.8763 406.87C27.4648 406.87 35.4816 398.933 35.4816 389.426C35.4888 380.471 36.0945 371.526 37.2945 362.65L36.6677 367.286C38.9859 350.39 43.5425 333.868 50.2197 318.152L48.4454 322.317C54.6479 307.811 62.6918 294.147 72.383 281.657L69.6283 285.188C78.708 273.545 89.241 263.087 100.975 254.067L97.4105 256.797C108.409 248.393 120.443 241.411 133.222 236.019L129.021 237.777C141.64 232.511 154.905 228.915 168.472 227.082L163.792 227.719C170.586 226.828 177.432 226.377 184.287 226.369C193.881 226.369 201.891 218.445 201.891 208.925C201.891 199.406 193.881 191.467 184.283 191.479L184.28 191.463Z" fill="white"/>
<path d="M219.565 18.0705V389.418C219.565 398.925 227.575 406.861 237.17 406.861C246.765 406.861 254.779 398.925 254.779 389.418V18.0705C254.779 8.56395 246.768 0.627441 237.17 0.627441C227.572 0.627441 219.565 8.56076 219.565 18.0705Z" fill="white"/>
<path d="M0.225625 18.0769C0.270627 54.8135 8.94311 91.2253 25.941 123.898C41.5308 153.886 64.8739 179.95 93.3728 198.438C120.415 215.903 151.971 225.262 184.251 225.391C193.848 225.391 201.859 217.429 201.859 207.949C201.859 198.467 193.848 190.521 184.251 190.505C177.734 190.499 171.225 190.074 164.766 189.231L169.446 189.868C156.488 188.118 143.819 184.69 131.762 179.677L135.97 181.435C123.241 176.079 111.263 169.115 100.335 160.718L103.9 163.446C92.1265 154.344 81.551 143.814 72.4212 132.105L75.1728 135.634C64.8259 122.297 56.2546 107.696 49.6697 92.1903L51.4473 96.3592C44.2303 79.2677 39.3098 61.3112 36.812 42.9502L37.4131 47.5586C36.0965 37.7854 35.4319 27.9368 35.4234 18.0769C35.4266 8.56713 27.4484 0.627441 17.8309 0.627441C8.21345 0.627441 0.215981 8.56711 0.225625 18.0769Z" fill="#F15A29"/>
<path d="M481.992 389.428C481.943 353.943 472.625 318.645 454.843 287.833C437.932 258.533 413.12 233.503 383.702 216.454C355.395 200.129 323.239 191.495 290.484 191.426C280.886 191.426 272.879 199.372 272.879 208.868C272.879 218.365 280.888 226.299 290.484 226.311C297.995 226.321 305.495 226.821 312.939 227.808L308.259 227.171C322.899 229.16 337.211 233.053 350.825 238.749L346.633 236.997C360.168 242.713 372.915 250.111 384.563 259.017L380.999 256.287C393.037 265.545 403.847 276.272 413.171 288.215L410.417 284.686C420.166 297.219 428.244 310.946 434.454 325.524L432.68 321.359C439.106 336.554 443.487 352.523 445.708 368.85C445.494 367.304 445.279 365.759 445.065 364.213C446.181 372.577 446.745 381.004 446.756 389.44C446.756 398.947 454.753 406.883 464.361 406.883C473.968 406.883 481.979 398.947 481.967 389.44L481.992 389.428Z" fill="#F15A29"/>
</g>
<defs>
<clipPath id="clip0_340_35123">
<rect width="2000" height="413.628" fill="white" transform="translate(0 0.627441)"/>
</clipPath>
</defs>
</svg>
